inDegrees=yes
name=ik_S53_A13_T03
DataType=double
version=3
OpenSimVersion=4.3-2021-08-27-4bc7ad9
endheader
time	pelvis_tilt	pelvis_list	pelvis_rotation	pelvis_tx	pelvis_ty	pelvis_tz	hip_flexion_r	hip_adduction_r	hip_rotation_r	knee_angle_r	knee_angle_r_beta	ankle_angle_r	subtalar_angle_r	mtp_angle_r	hip_flexion_l	hip_adduction_l	hip_rotation_l	knee_angle_l	knee_angle_l_beta	ankle_angle_l	subtalar_angle_l	mtp_angle_l	lumbar_extension	lumbar_bending	lumbar_rotation	arm_flex_r	arm_add_r	arm_rot_r	elbow_flex_r	pro_sup_r	wrist_flex_r	wrist_dev_r	arm_flex_l	arm_add_l	arm_rot_l	elbow_flex_l	pro_sup_l	wrist_flex_l	wrist_dev_l
0	0	0	0	0	0.9399999999999999	0	0	0	0	0	0	0	0	0	0	0	0	0	0	0	0	0	0	0	0	0	0	0	0	89.99999999963507	0	0	0	0	0	0	89.99999999869995	0	0
0.02	-0.9775924825668808	1.183884833988011	-5.281434739359183	0	0.9399999999999999	0	6.781490946299455	-2.882319043926365	-2.22891776621491	9.388246851008143	0.1638558185400816	0	0	0	6.781490946299455	-2.882319043926365	-2.22891776621491	9.388246851008143	0.1638558185400816	0	0	0	-0.816303320820757	-1.751856534304757	2.78023882689397	20.8095096924205	1.508038485248225	16.11365316871324	30.3913708968096	138.7635039251793	0	0	22.46474119855975	-2.381824321570409	23.07997239732895	27.54310706618811	142.8843321171512	0	0
0.04	-0.9861134396661901	1.192508933177752	-5.288237644657171	0	0.9399999999999999	0	6.889450735372828	-2.940494184645936	-2.268026744001045	9.511004359617779	0.165998341246865	0	0	0	6.889450735372828	-2.940494184645936	-2.268026744001045	9.511004359617779	0.165998341246865	0	0	0	-0.8261092880507207	-1.740175952309643	2.78378001185457	20.79870953693702	1.531699195744951	16.09423708530439	30.35561556557671	138.7703682716115	0	0	22.46481024031707	-2.359282927321463	23.12165481667524	27.52509372210072	142.863681163838	0	0
0.06	-1.002999526752212	1.193674194109697	-5.296954352764563	0	0.9399999999999999	0	7.013399667219511	-3.001554844930098	-2.312240991503206	9.641340119183798	0.1682731293843798	0	0	0	7.013399667219511	-3.001554844930098	-2.312240991503206	9.641340119183798	0.1682731293843798	0	0	0	-0.8436062594790777	-1.735178363983463	2.782373152359052	20.8326853669448	1.536987171311792	16.10372540504105	30.37139208753042	138.714140340322	0	0	22.47247736706587	-2.372925902322548	23.17023631954199	27.56939678377136	142.8125262439571	0	0
0.08	-1.005109081905246	1.207199942719211	-5.300947504077988	0	0.9399999999999999	0	7.079880491231513	-3.036529591285176	-2.337067942178154	9.70661010053673	0.1694123054617037	0	0	0	7.079880491231513	-3.036529591285176	-2.337067942178154	9.70661010053673	0.1694123054617037	0	0	0	-0.8474543336527764	-1.719134407462751	2.789082740048857	20.83121253888896	1.519779522480085	16.04754639104575	30.3475448180415	138.7597909718305	0	0	22.46366517816804	-2.339310252905151	23.13087483592739	27.54144117676346	142.8169282557905	0	0
0.1	-1.011479889090643	1.200325350869715	-5.298727371283335	0	0.9399999999999999	0	8.160591286233316	-3.527822598599757	-2.704954559769319	10.91076547036014	0.1904287813706922	0	0	0	8.160591286233316	-3.527822598599757	-2.704954559769319	10.91076547036014	0.1904287813706922	0	0	0	-0.8569812225751953	-1.699965273521491	2.777803267063268	20.85563948834128	1.53134958401019	16.03899490963937	30.29208019135525	138.7363425650193	0	0	22.46774791876781	-2.30231666006454	23.08587938585099	27.50221127895645	142.8511647226878	0	0
0.12	-1.005006536071896	1.176056980773017	-5.281285211386816	0	0.9399999999999999	0	10.27253701926741	-4.389863951279366	-3.407714403655156	13.07373887950209	0.2281797889933056	0	0	0	10.27253701926741	-4.389863951279366	-3.407714403655156	13.07373887950209	0.2281797889933056	0	0	0	-0.8599213430036399	-1.645320827333065	2.748633068773272	20.84370017527876	1.515504007327571	16.00541563090059	30.28975995364449	138.7568211405651	0	0	22.446409840436	-2.276173085029177	23.02427825267346	27.5212449907511	142.8337481524921	0	0
0.14	-1.012450161093231	1.179141479096053	-5.297348541160448	0	0.9399999999999999	0	10.31756713669695	-4.414991450797831	-3.424889357738373	13.12110085249333	0.2290064113622435	0	0	0	10.31756713669695	-4.414991450797831	-3.424889357738373	13.12110085249333	0.2290064113622435	0	0	0	-0.8680566778680556	-1.641477258809626	2.761798986821984	20.86186316433768	1.539382607431268	15.88815474852945	30.23302846902722	138.7344507212668	0	0	22.456115582501	-2.272397442184647	22.98691089607367	27.50334041798664	142.8507675166591	0	0
0.16	-1.003114331729154	1.166651917941114	-5.287998027538024	0	0.9399999999999999	0	10.81048336968209	-4.612097918394062	-3.586875090612181	13.63122372893457	0.2379097351458873	0	0	0	10.81048336968209	-4.612097918394062	-3.586875090612181	13.63122372893457	0.2379097351458873	0	0	0	-0.8601618855340228	-1.628742087745723	2.74517630693323	20.82410252203467	1.563832039250083	15.87720080706028	30.24033742624296	138.6516000592155	0	0	22.4227731374044	-2.269593589163628	22.9449000912444	27.47888185226871	142.8474972379344	0	0
0.18	-1.023290272717365	1.174370772180252	-5.285862774763749	0	0.9399999999999999	0	10.88441742285228	-4.649489269554245	-3.613611369451657	13.70996055781608	0.239283952052449	0	0	0	10.88441742285228	-4.649489269554245	-3.613611369451657	13.70996055781608	0.239283952052449	0	0	0	-0.8811082015710121	-1.619768188238965	2.734492509148104	20.86823006405881	1.568581942563214	15.86396076300341	30.21181233325979	138.6474610857294	0	0	22.45497954570265	-2.281870945029809	22.89711338722884	27.5164025302164	142.8340290437116	0	0
0.2	-1.021639447931232	1.176182528145104	-5.290950635795537	0	0.9399999999999999	0	10.95774235705357	-4.683276909092642	-3.639453860429213	13.78407617448257	0.2405775135904253	0	0	0	10.95774235705357	-4.683276909092642	-3.639453860429213	13.78407617448257	0.2405775135904253	0	0	0	-0.8800227283488269	-1.614462322273434	2.734297487080862	20.84525967833682	1.574483009604125	15.87220932177948	30.2244672634239	138.607077222382	0	0	22.43569649415653	-2.27670068114092	22.91747549146227	27.52124367664145	142.8011981944061	0	0
0.22	-1.022367085062128	1.182573314824192	-5.294015460217813	0	0.9399999999999999	0	11.02358303145662	-4.714466733181289	-3.662991447568875	13.85066927941149	0.241739782530561	0	0	0	11.02358303145662	-4.714466733181289	-3.662991447568875	13.85066927941149	0.241739782530561	0	0	0	-0.8816867305458242	-1.605240363437774	2.735602154865208	20.83950443347078	1.560906285786669	15.85772123078605	30.22875343060896	138.5796622586453	0	0	22.40795199713898	-2.289063769408173	22.93312923581328	27.53706026308416	142.7793022161035	0	0
0.24	-1.037619162699722	1.183265848228652	-5.296700507978032	0	0.9399999999999999	0	11.16716107441803	-4.774706738579317	-3.711359172382824	13.9962100955176	0.2442799489676521	0	0	0	11.16716107441803	-4.774706738579317	-3.711359172382824	13.9962100955176	0.2442799489676521	0	0	0	-0.8976022194760531	-1.598940695612358	2.73323102573975	20.85187635652689	1.552788398308705	15.91357923102905	30.33629998581603	138.4734596891825	0	0	22.41229584601044	-2.304930548040968	22.99088069372828	27.66106295668875	142.6606698959412	0	0
0.26	-1.033960627414769	1.180846993642982	-5.298492790518044	0	0.9399999999999999	0	11.23002757916331	-4.796558746821911	-3.731125565163164	14.05884346115952	0.2453731074197091	0	0	0	11.23002757916331	-4.796558746821911	-3.731125565163164	14.05884346115952	0.2453731074197091	0	0	0	-0.8939653355925754	-1.597546988671409	2.724895397946908	20.83050517095844	1.589800657564094	15.92142534587329	30.23863463685425	138.5523564171614	0	0	22.41066059678462	-2.294070200761597	22.96485780195184	27.54633201772825	142.7565112838986	0	0
0.28	-1.041265998850224	1.178410264990903	-5.304262118625132	0	0.9399999999999999	0	11.31163420765456	-4.830913441102404	-3.758931448558637	14.13909654187258	0.2467737879130209	0	0	0	11.31163420765456	-4.830913441102404	-3.758931448558637	14.13909654187258	0.2467737879130209	0	0	0	-0.9014713752252179	-1.596486239079257	2.725081330319905	20.82558717514163	1.582796726489448	15.95362203865038	30.26696435452669	138.5200273310602	0	0	22.40317627309503	-2.308301544993943	23.0146113234461	27.56083558449886	142.6927521777515	0	0
0.3	-1.046517997334168	1.17626220090062	-5.304012437556024	0	0.9399999999999999	0	11.46265672026559	-4.887418642949882	-3.808047371428128	14.28519651461765	0.2493237134744963	0	0	0	11.46265672026559	-4.887418642949882	-3.808047371428128	14.28519651461765	0.2493237134744963	0	0	0	-0.9072585014286498	-1.591040616957508	2.723061350305364	20.82420306492103	1.577973319807898	15.99582082163375	30.37019347498845	138.4206438034177	0	0	22.40478425247135	-2.32748710058251	23.07037012635995	27.66156966710743	142.5446937708669	0	0
0.32	-1.043258318196592	1.171045989691094	-5.288805297504267	0	0.9399999999999999	0	11.44685929761395	-4.886402979932	-3.804289763467658	14.27209826611121	0.2490951059118144	0	0	0	11.44685929761395	-4.886402979932	-3.804289763467658	14.27209826611121	0.2490951059118144	0	0	0	-0.9033602776066838	-1.596777325170032	2.716058434919238	20.81362251347729	1.598976618043958	15.970984846116	30.26215377220236	138.5265624026007	0	0	22.40527905205568	-2.314710315174165	23.07275010670507	27.54540818890813	142.5828197750711	0	0
0.34	-1.039527217658096	1.158917217068916	-5.280816646081163	0	0.9399999999999999	0	11.50041033794904	-4.91119640195004	-3.823440998073051	14.32448152291821	0.2500093662160143	0	0	0	11.50041033794904	-4.91119640195004	-3.823440998073051	14.32448152291821	0.2500093662160143	0	0	0	-0.8987763772797391	-1.605999414625109	2.714350724982937	20.80088610092281	1.620069933151915	15.9586977130451	30.27223332781789	138.5036599942055	0	0	22.38035426826425	-2.318074391862228	23.07324450068604	27.5517685343142	142.5650787085101	0	0
0.36	-1.042651256603873	1.155341800430248	-5.272542742933302	0	0.9399999999999999	0	11.55819013339554	-4.938418535965716	-3.844200685535313	14.38181771530954	0.2510100715537999	0	0	0	11.55819013339554	-4.938418535965716	-3.844200685535313	14.38181771530954	0.2510100715537999	0	0	0	-0.9017003111409413	-1.607089783695743	2.706919371866795	20.79707813541747	1.620810294484213	15.97019568514812	30.25891114933009	138.496967417634	0	0	22.38521370521138	-2.306105807079661	23.01705060156263	27.53304024742442	142.5477649837267	0	0
